PathFileType	4	(X/Y/Z)	/Users/itak/Documents/Research/Walk-IL/dataset/trc/00323_00011.trc
DataRate	CameraRate	NumFrames	NumMarkers	Units	OrigDataRate	OrigDataStartFrame	OrigNumFrames
100.000000	100.000000	4	53	mm	100.000000	362	483
Frame#	Time	RPSI			LPSI			L3			STRN			T10			C7			CLAV			RBAK			LBAK			LSHO			LUPA			LAEL			LAOL			LWTS			LWPS			LFRA			LHPS			LHTS			RSHO			RUPA			RAEL			RAOL			RWTS			RWPS			RFRA			RIFD			RHTS			RHPS			RBHD			LFHD			RFHD			LBHD			LHIP			RHIP			RASI			LASI			LKNE			LTHI			LANK			LTIP			LTOE			LMT1			LMT5			LHEE			RKNE			RANK			RTIP			RTOE			RMT1			RMT5			RHEE			LIFD			RTHI			
		X1	Y1	Z1	X2	Y2	Z2	X3	Y3	Z3	X4	Y4	Z4	X5	Y5	Z5	X6	Y6	Z6	X7	Y7	Z7	X8	Y8	Z8	X9	Y9	Z9	X10	Y10	Z10	X11	Y11	Z11	X12	Y12	Z12	X13	Y13	Z13	X14	Y14	Z14	X15	Y15	Z15	X16	Y16	Z16	X17	Y17	Z17	X18	Y18	Z18	X19	Y19	Z19	X20	Y20	Z20	X21	Y21	Z21	X22	Y22	Z22	X23	Y23	Z23	X24	Y24	Z24	X25	Y25	Z25	X26	Y26	Z26	X27	Y27	Z27	X28	Y28	Z28	X29	Y29	Z29	X30	Y30	Z30	X31	Y31	Z31	X32	Y32	Z32	X33	Y33	Z33	X34	Y34	Z34	X35	Y35	Z35	X36	Y36	Z36	X37	Y37	Z37	X38	Y38	Z38	X39	Y39	Z39	X40	Y40	Z40	X41	Y41	Z41	X42	Y42	Z42	X43	Y43	Z43	X44	Y44	Z44	X45	Y45	Z45	X46	Y46	Z46	X47	Y47	Z47	X48	Y48	Z48	X49	Y49	Z49	X50	Y50	Z50	X51	Y51	Z51	X52	Y52	Z52	X53	Y53	Z53	

363	3.62	389.3942565917969	958.5504150390625	76.15634918212891	396.4485778808594	967.3759155273438	-53.43682861328125	383.9333190917969	1030.3505859375	5.768712997436523	622.796142578125	1214.280395507812	18.31381416320801	380.2400207519531	1148.658447265625	-10.50798988342285	425.4157409667969	1396.478393554688	-26.04946517944336	578.70947265625	1338.090454101562	5.714201927185059	367.1990051269531	1261.067504882812	34.78086471557617	430.2035217285156	1356.833984375	-128.3306884765625	522.385986328125	1375.163696289062	-166.5724639892578	533.9732055664062	1261.748291015625	-243.4048461914062	619.8681640625	1078.256225585938	-276.4357604980469	557.6357421875	1035.941528320312	-235.9091033935547	813.537841796875	915.1781005859375	-225.3064422607422	791.9898681640625	887.4392700195312	-284.8016967773438	680.5426635742188	992.1787109375	-287.0759887695312	829.4296264648438	829.2674560546875	-281.5633544921875	869.0005493164062	860.2213745117188	-242.8855133056641	457.1080017089844	1386.048217773438	143.4620361328125	427.0040588378906	1326.04248046875	202.5920257568359	369.0312194824219	1065.344360351562	230.232666015625	364.2300415039062	1061.2138671875	136.6489562988281	434.1577453613281	816.6536865234375	226.479736328125	376.2944030761719	815.5761108398438	276.0460815429688	374.0375671386719	996.1954345703125	248.0519104003906	403.7806701660156	647.0792846679688	237.7845764160156	421.427734375	702.3948364257812	234.3123168945312	370.0374755859375	730.8954467773438	277.9667053222656	487.7981262207031	1605.869750976562	66.484130859375	665.2238159179688	1591.625732421875	-42.20975494384766	649.83984375	1594.801391601562	57.67375564575195	481.8768615722656	1600.49853515625	-78.07975769042969	489.6861267089844	915.7877807617188	-154.8681030273438	469.153564453125	910.6607666015625	187.1823577880859	571.0999145507812	948.5374755859375	147.5550079345703	606.8153686523438	944.3280639648438	-90.20798492431641	543.0254516601562	457.0111694335938	-114.9300155639648	544.6279296875	597.9332885742188	-132.1973724365234	405.6381225585938	49.43124008178711	-85.16938018798828	479.7950744628906	239.8023376464844	-113.1652145385742	612.5302124023438	36.32535171508789	-30.05046844482422	541.2003784179688	24.73587608337402	13.39322376251221	529.065673828125	37.63315963745117	-99.59995269775391	373.0411987304688	47.66384124755859	-17.39816474914551	676.503662109375	485.877197265625	178.7754516601562	608.4554443359375	69.38304901123047	147.4946746826172	683.1094970703125	366.3331604003906	172.2039489746094	803.388427734375	59.50198745727539	131.1028289794922	757.5004272460938	50.6971435546875	79.83806610107422	701.5328369140625	46.61771011352539	182.1399078369141	566.8816528320312	75.62009429931641	91.01026916503906	911.4666137695312	788.5621337890625	-225.9552612304688	603.9749145507812	731.947021484375	202.5827026367188	
364	3.63	396.9763793945312	958.0506591796875	77.21160888671875	403.7929077148438	966.8984375	-52.2829704284668	391.1113891601562	1029.57275390625	6.957722187042236	630.0416259765625	1213.602294921875	18.99056816101074	387.2036437988281	1147.994262695312	-9.605079650878906	432.627197265625	1395.732299804688	-25.20502853393555	585.9585571289062	1337.39794921875	6.421114921569824	374.5690002441406	1260.37890625	35.75586318969727	437.2927551269531	1356.025268554688	-127.5495834350586	529.4011840820312	1374.503540039062	-165.7383728027344	541.7096557617188	1261.483520507812	-242.8037261962891	630.0535888671875	1079.185791015625	-276.2398376464844	568.5283813476562	1035.922607421875	-235.7322998046875	826.783447265625	919.969970703125	-225.1084442138672	805.697509765625	891.6844482421875	-284.5385131835938	692.2371826171875	994.2230224609375	-286.8608703613281	844.2843627929688	834.2191772460938	-281.12939453125	883.3220825195312	866.1630249023438	-242.5836181640625	464.4551086425781	1385.398681640625	144.2486267089844	434.3124389648438	1325.68896484375	203.4345245361328	374.1078491210938	1065.467407226562	230.4743347167969	369.6036682128906	1061.53662109375	136.9296875	435.6114196777344	815.7227172851562	226.7147827148438	377.7816162109375	815.7836303710938	276.4278564453125	378.2532043457031	996.3955688476562	248.3323822021484	402.4975891113281	646.8187866210938	238.3205871582031	422.2421875	702.8744506835938	236.1734466552734	370.16943359375	731.2794189453125	278.4752197265625	494.7337646484375	1604.923095703125	67.25479888916016	672.3516845703125	1591.162719726562	-41.28409576416016	656.8331298828125	1594.295654296875	58.59050369262695	488.9660034179688	1599.593139648438	-77.29759216308594	496.7267761230469	915.3159790039062	-153.9886322021484	476.8853759765625	909.8717041015625	188.0263519287109	578.7744140625	947.8517456054688	148.4056701660156	613.94287109375	943.7037963867188	-89.47019958496094	546.837158203125	456.5695495605469	-114.3214263916016	549.6978759765625	597.4118041992188	-131.4446716308594	405.76953125	49.79050064086914	-84.92298126220703	481.6271362304688	239.7310943603516	-112.788703918457	612.636962890625	36.27864074707031	-30.03993225097656	541.3121948242188	24.77579689025879	13.43707942962646	529.1605834960938	37.71760559082031	-99.50743103027344	373.2231750488281	48.17084884643555	-17.07848930358887	681.5012817382812	482.99462890625	178.2385864257812	636.8471069335938	64.16059875488281	149.5844421386719	694.104248046875	364.3889465332031	172.6398315429688	831.7116088867188	63.99454879760742	132.137451171875	786.1921997070312	52.66284942626953	81.16746520996094	730.887451171875	45.88970565795898	183.8921203613281	594.4306030273438	67.64877319335938	93.24691772460938	927.2589721679688	795.3560791015625	-225.6127166748047	609.9710693359375	730.132568359375	203.2661743164062	
365	3.64	404.6312255859375	957.4276123046875	78.31585693359375	411.1522827148438	966.3096313476562	-51.07939910888672	398.3776245117188	1028.690673828125	8.180985450744629	637.2796630859375	1212.872436523438	19.76999092102051	394.1968383789062	1147.230834960938	-8.546195030212402	439.7984313964844	1394.8974609375	-24.235595703125	593.1627197265625	1336.640258789062	7.225478172302246	381.918701171875	1259.593994140625	36.87216949462891	444.3192749023438	1355.1201171875	-126.6394805908203	536.3458862304688	1373.751342773438	-164.7958984375	549.30322265625	1261.130859375	-242.0918273925781	639.8782958984375	1079.935913085938	-275.8608093261719	579.0077514648438	1035.803833007812	-235.3706359863281	839.333740234375	924.3257446289062	-224.6547393798828	818.7489013671875	895.5965576171875	-284.0664367675781	703.44677734375	996.05810546875	-286.4506225585938	858.39013671875	838.8081665039062	-280.4980773925781	896.9430541992188	871.712158203125	-242.0840301513672	471.7935485839844	1384.677368164062	145.1533355712891	441.6452026367188	1325.238159179688	204.3959350585938	379.460693359375	1065.445068359375	230.8070678710938	375.296630859375	1061.709228515625	137.3133239746094	437.5298461914062	814.8358154296875	227.2270812988281	379.6466979980469	815.9137573242188	276.9265441894531	382.7906494140625	996.4744873046875	248.7228393554688	401.5947875976562	646.5294799804688	238.9520263671875	423.2709350585938	703.2452392578125	237.9721984863281	370.6814575195312	731.6300659179688	279.0704345703125	501.6193237304688	1603.883911132812	68.09069061279297	679.407958984375	1590.651245117188	-40.34093475341797	663.773193359375	1593.7412109375	59.54684066772461	495.9702453613281	1598.560913085938	-76.43818664550781	503.8152160644531	914.8102416992188	-153.08203125	484.7065734863281	908.8933715820312	188.8984680175781	586.5225830078125	947.06298828125	149.3161315917969	621.0924682617188	943.05859375	-88.66098022460938	550.7333374023438	456.1496887207031	-113.7262802124023	554.854736328125	596.8974609375	-130.7211761474609	405.9244384765625	50.17840957641602	-84.6473388671875	483.5221557617188	239.6930084228516	-112.3981246948242	612.7514038085938	36.22637176513672	-30.02140045166016	541.4833984375	24.8638973236084	13.45587539672852	529.26904296875	37.81692123413086	-99.40322113037109	373.4386291503906	48.7470588684082	-16.71849060058594	686.2064819335938	479.9189147949219	177.7599792480469	664.5418090820312	59.84091567993164	151.6744689941406	704.7464599609375	362.5796508789062	173.038818359375	858.8671264648438	69.11878967285156	132.7673187255859	813.679443359375	55.37665176391602	82.22310638427734	759.43359375	46.17864990234375	185.5631103515625	621.3521118164062	60.77786636352539	95.71971893310547	942.1669921875	801.63818359375	-225.0086669921875	615.7556762695312	727.9846801757812	204.0036163330078	
366	3.65	412.3474426269531	956.665283203125	79.47451782226562	418.5068359375	965.6061401367188	-49.83214569091797	405.7499389648438	1027.697875976562	9.453246116638184	644.5143432617188	1212.089477539062	20.65594673156738	401.2114562988281	1146.362915039062	-7.330759048461914	446.9247741699219	1393.970947265625	-23.13437080383301	600.3258666992188	1335.821044921875	8.130338668823242	389.2328186035156	1258.707641601562	38.12860488891602	451.2853698730469	1354.121948242188	-125.5927276611328	543.2191772460938	1372.906127929688	-163.7420654296875	556.7464599609375	1260.673828125	-241.2604064941406	649.3353271484375	1080.485473632812	-275.3119201660156	589.0592651367188	1035.563842773438	-234.8363647460938	851.197265625	928.2239379882812	-223.9395141601562	831.1555786132812	899.1527099609375	-283.376220703125	714.1744995117188	997.663330078125	-285.859619140625	871.7637329101562	843.0186767578125	-279.6693420410156	909.858642578125	876.8096313476562	-241.3640594482422	479.1313781738281	1383.88134765625	146.1836700439453	448.9943237304688	1324.681396484375	205.4763793945312	385.0846862792969	1065.266723632812	231.2419281005859	381.3052673339844	1061.713256835938	137.7979278564453	439.9237365722656	813.9651489257812	228.0121612548828	381.9131774902344	815.9577026367188	277.5503845214844	387.6524658203125	996.4203491210938	249.234375	401.1271057128906	646.2130737304688	239.681396484375	424.4953002929688	703.4227905273438	239.6226959228516	371.5993041992188	731.920654296875	279.7476501464844	508.4666748046875	1602.758666992188	69.00080871582031	686.3847045898438	1590.0908203125	-39.37040710449219	670.6656494140625	1593.140380859375	60.54627990722656	502.8946533203125	1597.404052734375	-75.50054168701172	510.9554138183594	914.275146484375	-152.1431121826172	492.6186218261719	907.7260131835938	189.8004608154297	594.3536987304688	946.1815185546875	150.2727355957031	628.2640380859375	942.3897094726562	-87.79300689697266	554.7056274414062	455.7474975585938	-113.163330078125	560.0772705078125	596.3900756835938	-130.0432586669922	406.1081848144531	50.60087966918945	-84.34070587158203	485.4764099121094	239.7041015625	-112.0027923583984	612.8749389648438	36.1656608581543	-29.99040794372559	541.6929931640625	24.97392082214355	13.46813011169434	529.3907470703125	37.93363952636719	-99.28729248046875	373.6908264160156	49.40713119506836	-16.32498359680176	690.7299194335938	476.7444458007812	177.3877868652344	691.2444458007812	56.36388397216797	153.726318359375	715.0593872070312	360.9554748535156	173.4168701171875	884.6762084960938	74.76039886474609	133.0237731933594	839.7642211914062	58.71637344360352	83.02568054199219	786.9267578125	47.44668197631836	187.1087036132812	647.39404296875	55.02641296386719	98.38597869873047	956.2088623046875	807.3853149414062	-224.1434631347656	621.4231567382812	725.5724487304688	204.8070373535156	
